PathFileType	4	(X/Y/Z)	./resultDataOpenSim/trcMotMarkerGrf/sub10/qtm-12-07.trc
DataRate	CameraRate	NumFrames	NumMarkers	Units	OrigDataRate	OrigDataStartFrame	OrigNumFrames
250.000000	250.000000	9	24	m	250.000000	63	503
Frame#	Time	L.Toe.Tip			R.Toe.Tip			L.Ankle.Lat			R.Ankle.Lat			L.Ankle.Med			R.Ankle.Med			L.Heel			R.Heel			L.Knee.Lat			R.Knee.Lat			L.Knee.Med			R.Knee.Med			L.Thigh.Upper			R.Thigh.Upper			L.ASIS			R.ASIS			V.Sacral			L.Acromium			R.Acromium			C7			L.Elbow			R.Elbow			L.Wrist.Lat			R.Wrist.Lat
		X1	Y1	Z1	X2	Y2	Z2	X3	Y3	Z3	X4	Y4	Z4	X5	Y5	Z5	X6	Y6	Z6	X7	Y7	Z7	X8	Y8	Z8	X9	Y9	Z9	X10	Y10	Z10	X11	Y11	Z11	X12	Y12	Z12	X13	Y13	Z13	X14	Y14	Z14	X15	Y15	Z15	X16	Y16	Z16	X17	Y17	Z17	X18	Y18	Z18	X19	Y19	Z19	X20	Y20	Z20	X21	Y21	Z21	X22	Y22	Z22	X23	Y23	Z23	X24	Y24	Z24

63	0.248	-1.4053658	0.067324345	-0.038920544	-0.69219302	0.040326184	0.064218624	-1.3862126	0.20521922	-0.070876033	-0.82619171	0.052454055	0.1134146	-1.3522971	0.19312976	0.004924597	-0.82005781	0.080999347	0.02789927	-1.4130575	0.25697565	-0.015737397	-0.88374263	0.029093732	0.069747951	-1.0706968	0.4029368	-0.11774125	-0.80841428	0.44975717	0.15327865	-1.0414878	0.35838868	-0.0065795512	-0.82395049	0.4611615	0.025916687	-1.0102819	0.77415682	-0.14221023	-0.91993707	0.85456238	0.23059942	-0.93949272	0.88864958	-0.094835731	-0.88106452	0.93379691	0.13777142	-1.1049317	0.92270946	0.068260412	-0.97356928	1.370948	-0.12948255	-1.0094434	1.3766568	0.19669739	-1.0771224	1.404932	0.021785807	-1.0335166	1.0247491	-0.19781598	-1.1694774	1.0715254	0.23006773	-0.82701882	0.88572016	-0.17960692	-1.1301666	0.85794183	0.33879629
64	0.252	-1.3962816	0.070479947	-0.040297947	-0.69209857	0.040248712	0.064124366	-1.375495	0.20790109	-0.071439287	-0.82615944	0.052463999	0.11337381	-1.3413782	0.19518229	0.0042885105	-0.81986297	0.080970415	0.027787755	-1.4016887	0.2597233	-0.016029963	-0.8837537	0.029076413	0.069717551	-1.0590831	0.4026576	-0.11841043	-0.80523652	0.44972367	0.15300158	-1.0296034	0.35872506	-0.0069030911	-0.82103703	0.4609717	0.025730331	-1.0031347	0.77441695	-0.14196789	-0.91505241	0.85500104	0.23085983	-0.93326639	0.88894884	-0.094619347	-0.87536447	0.93422331	0.13806382	-1.0997346	0.92282325	0.067951067	-0.96784883	1.3716473	-0.12934977	-1.003263	1.3770692	0.19700498	-1.0712953	1.4057822	0.022247558	-1.0285938	1.0257353	-0.19793613	-1.1627141	1.0717199	0.23085356	-0.8226021	0.88563547	-0.17951257	-1.1241702	0.85777868	0.3389209
65	0.256	-1.3860793	0.073400888	-0.041617354	-0.69201521	0.040183834	0.064017676	-1.364699	0.21051771	-0.071921848	-0.82612608	0.052484259	0.11332651	-1.330408	0.19733338	0.0037005334	-0.8196488	0.080944291	0.027669549	-1.3906218	0.26221837	-0.016127284	-0.88376479	0.029065983	0.069683081	-1.0473474	0.40252166	-0.11897838	-0.8022131	0.44970348	0.15276275	-1.0178469	0.3593081	-0.0071218814	-0.81825944	0.46078196	0.025514361	-0.99607209	0.77481462	-0.14170389	-0.91025095	0.85538974	0.2310545	-0.92716789	0.8893283	-0.094485339	-0.86970674	0.93464572	0.13835484	-1.0945763	0.9225057	0.067523958	-0.96217548	1.3723771	-0.12922982	-0.99704272	1.3775243	0.19727135	-1.0654296	1.406695	0.022715687	-1.0235454	1.0267355	-0.19789019	-1.1559763	1.0719289	0.23159529	-0.81842424	0.88553531	-0.17951574	-1.1181813	0.85761373	0.33895053
66	0.26	-1.3748547	0.075997481	-0.042820125	-0.69194624	0.040131234	0.063912104	-1.3537857	0.2130094	-0.072338449	-0.82609289	0.052519966	0.11327344	-1.31933	0.19957567	0.0031958005	-0.81944351	0.080918852	0.0275407	-1.3797784	0.2644603	-0.016038348	-0.88377603	0.029061174	0.069643771	-1.0355015	0.402528	-0.11944088	-0.79941131	0.44970894	0.15259118	-1.0061987	0.36008777	-0.0072532769	-0.81559231	0.46060156	0.025278629	-0.98928101	0.77529722	-0.14152818	-0.90551863	0.85574442	0.23118193	-0.92116902	0.88982922	-0.094418536	-0.86412729	0.935093	0.13866989	-1.0895263	0.92214218	0.067090293	-0.95653585	1.3731306	-0.1291037	-0.99078467	1.3780305	0.19749753	-1.0595407	1.4076575	0.023195928	-1.0184699	1.0277539	-0.1977395	-1.1493164	1.0721547	0.23218838	-0.81447964	0.88541939	-0.17961006	-1.1119672	0.85751337	0.33892302
67	0.264	-1.3627406	0.078269528	-0.043881181	-0.6918956	0.040089345	0.0638165	-1.3426962	0.21531032	-0.072722534	-0.82606811	0.052569436	0.11321883	-1.3082395	0.20185766	0.0028422344	-0.81926018	0.080893939	0.02740873	-1.369106	0.26646142	-0.015844508	-0.8837893	0.029058663	0.069601166	-1.0235634	0.40268515	-0.11982512	-0.79681239	0.44973362	0.15247758	-0.99462604	0.36102053	-0.0073104475	-0.81297904	0.46044613	0.025030256	-0.98281081	0.77583011	-0.14146143	-0.90083353	0.85607031	0.23123921	-0.91525562	0.89047343	-0.09441464	-0.85864645	0.93558839	0.13901816	-1.0845087	0.92194055	0.066689126	-0.95087588	1.3739043	-0.12895899	-0.98449667	1.3785934	0.19768772	-1.053657	1.4086542	0.023680675	-1.0134725	1.0287925	-0.19756489	-1.142788	1.0724097	0.23250046	-0.8106848	0.88530002	-0.17975206	-1.1054747	0.85749124	0.33885405
68	0.268	-1.3498779	0.080255646	-0.044802925	-0.69186563	0.04005538	0.063731174	-1.3313753	0.21738439	-0.073110578	-0.82605944	0.052625689	0.11316419	-1.2974479	0.20407964	0.0026943717	-0.81909903	0.080869212	0.02728168	-1.3585889	0.26827258	-0.015803355	-0.883807	0.029057342	0.069557382	-1.0115704	0.40300836	-0.12015849	-0.79429834	0.44973716	0.15237395	-0.98308863	0.36207528	-0.0073028796	-0.81036242	0.46032907	0.024765119	-0.97657556	0.77640353	-0.14144169	-0.89617086	0.85637358	0.23122639	-0.90944025	0.89125603	-0.094485471	-0.8532538	0.93613634	0.13938485	-1.0794266	0.92196954	0.066321529	-0.94515286	1.374704	-0.12879909	-0.97820142	1.3792116	0.19785183	-1.0478124	1.4096659	0.024150091	-1.0085855	1.0298536	-0.19741204	-1.1364593	1.0727043	0.23235217	-0.80697441	0.88518973	-0.17990164	-1.098771	0.85752771	0.33874581
69	0.272	-1.3363893	0.081996572	-0.045587579	-0.69185433	0.040027541	0.063653453	-1.3198026	0.21923622	-0.073524164	-0.82606891	0.052683349	0.11310753	-1.2871462	0.20616542	0.0027608734	-0.81895854	0.080842696	0.027160512	-1.3482445	0.26999355	-0.016378771	-0.88383005	0.029058184	0.069512524	-0.99957233	0.40351652	-0.12042346	-0.79175639	0.44967746	0.15223563	-0.9714443	0.36324585	-0.0072754392	-0.80777042	0.46025102	0.024492958	-0.97048841	0.77702203	-0.14140385	-0.89150839	0.85667384	0.23115055	-0.90373702	0.89216418	-0.094642035	-0.84792846	0.93673095	0.13975177	-1.0742523	0.92220882	0.065970301	-0.93940096	1.3755352	-0.12863597	-0.97193129	1.3798818	0.19800736	-1.0420307	1.4106777	0.024585171	-1.0037869	1.030941	-0.19730312	-1.1303335	1.0730394	0.23171692	-0.80330631	0.88508793	-0.18004567	-1.0919285	0.85760716	0.33860066
70	0.276	-1.3223771	0.083529239	-0.046251295	-0.69185695	0.040006424	0.063583216	-1.3080078	0.22089096	-0.073961506	-0.82609265	0.052741505	0.11304597	-1.2770223	0.20813475	0.0029485111	-0.81884183	0.080812236	0.027039919	-1.3380882	0.27168949	-0.01794424	-0.88385813	0.029061487	0.069463786	-0.98758809	0.40422622	-0.12058632	-0.78917296	0.4495526	0.15205645	-0.95939577	0.36455548	-0.0073303734	-0.80531364	0.4602038	0.024243603	-0.96452404	0.77770114	-0.14133199	-0.88682639	0.85699139	0.23101626	-0.89814251	0.89319113	-0.094881221	-0.84266258	0.93737198	0.14011574	-1.0690294	0.92260111	0.065602692	-0.93371967	1.3763944	-0.12848034	-0.96571461	1.380605	0.19817251	-1.0363173	1.4116849	0.024982398	-0.99905381	1.0320581	-0.19725339	-1.124232	1.0734141	0.23097383	-0.79960659	0.88498105	-0.18018726	-1.0849736	0.85772096	0.3384254
71	0.28	-1.3079324	0.084884585	-0.046845458	-0.69186953	0.039992739	0.063522398	-1.2960467	0.22236461	-0.074395281	-0.82612315	0.052800717	0.11297756	-1.2662971	0.21008784	0.0030155335	-0.81875026	0.08077837	0.026914784	-1.3280714	0.27326092	-0.020290742	-0.88388999	0.029066733	0.069407909	-0.97556178	0.40514512	-0.12067381	-0.78661193	0.4494	0.15185363	-0.94660417	0.36604393	-0.0075911897	-0.80306028	0.4601773	0.02403332	-0.95868671	0.77845839	-0.14125491	-0.88210906	0.85733119	0.23082026	-0.89264015	0.89433651	-0.095190542	-0.83745616	0.93806029	0.14047595	-1.0638317	0.92309508	0.065165593	-0.92817577	1.3772787	-0.12833575	-0.95956057	1.3813822	0.19835029	-1.0306651	1.4126935	0.025355737	-0.99438058	1.0332058	-0.19726022	-1.11791	1.0738311	0.23065041	-0.79579991	0.88486204	-0.18032767	-1.0778959	0.85785905	0.33822805
